<svg width="353" height="548" xmlns="http://www.w3.org/2000/svg"><defs><linearGradient gradientTransform="rotate(90)" id="a"><stop stop-color="#020d1c" offset="0"/><stop stop-color="#093470" offset="1"/></linearGradient><linearGradient id="b"><stop stop-color="#865325" offset="0"/><stop stop-color="#ffd66f" offset=".47"/><stop stop-color="#b3671f" offset="1"/></linearGradient><linearGradient id="c"><stop stop-color="#865325" offset="0"/><stop stop-color="#ffd66f" offset="1"/></linearGradient><linearGradient id="d"><stop stop-color="#ffd66f" offset="0"/><stop stop-color="#b3671f" offset="1"/></linearGradient></defs><path d="M331.62 2.11H21.12A19.12 19.12 0 0 0 2 21.23v506.23a19.12 19.12 0 0 0 19.12 19.12h310.5a19.12 19.12 0 0 0 19.12-19.12V21.22a19.12 19.12 0 0 0-19.12-19.11z" fill="url(#a)"/><path d="M331.62 8.22H21.12a13 13 0 0 0-13 13v506.24a13 13 0 0 0 13 13h310.5a13 13 0 0 0 13-13V21.22a13 13 0 0 0-13-13zm9.33 519.24a9.35 9.35 0 0 1-9.33 9.34H21.12a9.35 9.35 0 0 1-9.34-9.34V21.22a9.35 9.35 0 0 1 9.34-9.33h310.5a9.34 9.34 0 0 1 9.33 9.33v506.24z" fill="#b5e0d6"/><path d="M243.96 222.06a75.59 75.59 0 0 0 8.81-32.93h25.28a100.74 100.74 0 0 1-12.19 45.57l-21.9-12.64z" fill="#54c3f0"/><path d="M278.04 183.72h-25.27a75.59 75.59 0 0 0-8.81-32.93l21.9-12.64a100.74 100.74 0 0 1 12.18 45.57z" fill="#88d3e3"/><path d="M179.53 287.65v-25.28a75.59 75.59 0 0 0 32.93-8.81l12.64 21.89a100.73 100.73 0 0 1-45.57 12.2z" fill="#36abc6"/><path d="M141.19 253.56a75.59 75.59 0 0 0 32.93 8.81v25.28a100.73 100.73 0 0 1-45.57-12.19l12.64-21.9z" fill="#26a1b5"/><path d="M217.14 250.86a76.39 76.39 0 0 0 24.1-24.1l21.89 12.64a101.78 101.78 0 0 1-33.36 33.36l-12.63-21.9z" fill="#44b5d8"/><path d="M75.6 189.13h25.26a75.59 75.59 0 0 0 8.81 32.93L87.78 234.7a100.73 100.73 0 0 1-12.18-45.57z" fill="#1a77b5"/><path d="M112.4 226.75a76.39 76.39 0 0 0 24.1 24.1l-12.64 21.9a101.78 101.78 0 0 1-33.36-33.36l21.9-12.64z" fill="#288bb2"/><path d="M241.25 146.11a76.39 76.39 0 0 0-24.1-24.1l12.64-21.89a101.78 101.78 0 0 1 33.36 33.36l-21.9 12.63z" fill="#b5e0d6"/><path d="M109.69 150.79a75.59 75.59 0 0 0-8.83 32.93H75.6a100.73 100.73 0 0 1 12.19-45.57l21.9 12.64z" fill="#1b55b2"/><path d="M136.5 122a76.39 76.39 0 0 0-24.1 24.1l-21.89-12.64a101.78 101.78 0 0 1 33.35-33.35L136.5 122z" fill="#0e499e"/><image href="https://jpyc.jp/static/media/jpyc.0d1e5d3f.png" y="46" x="132" width="90" height="90"/><text fill="#f1f2f2" font-family="sans-serif" letter-spacing=".02em" class="common" font-weight="700" font-size="32" y="176" x="126">日本円</text><text fill="#f1f2f2" font-family="sans-serif" letter-spacing=".02em" class="common" font-weight="700" font-size="26" y="208" x="112">ハッカソン</text><text fill="#f1f2f2" font-family="sans-serif" letter-spacing=".02em" class="common" font-size="16" y="236" x="150">4月開催</text><text font-family="sans-serif" letter-spacing=".02em" fill="url(#b)" font-weight="700" font-size="60" y="383" x="83">合格証</text><text font-family="sans-serif" letter-spacing=".02em" fill="url(#c)" font-weight="bold" font-size="17" x="90" y="413">Wallet ID:</text><text font-family="sans-serif" letter-spacing=".02em" fill="url(#d)" font-size="17" x="175" y="413">ANV...12D</text><text fill="#f1f2f2" font-family="sans-serif" letter-spacing=".02em" class="common" font-size="12" x="37" y="472">あなたは事前テストで所定の得点を取得しました。</text><text fill="#f1f2f2" font-family="sans-serif" letter-spacing=".02em" class="common" font-size="12" x="72" y="492">よってここに合格証を授与致します。</text></svg>